<svg width="335" height="69" viewBox="0 0 335 69" fill="none" xmlns="http://www.w3.org/2000/svg">
<g clip-path="url(#clip0_243_1163)">
<path d="M0 19.9127C0 14.8325 4.11836 10.7141 9.19861 10.7141H15.5357V50.0891C15.5357 54.3792 12.0579 57.857 7.76786 57.857C3.47779 57.857 0 54.3792 0 50.0891V19.9127Z" fill="#D9D9D9"/>
<path d="M0 19.9127C0 14.8325 4.11836 10.7141 9.19861 10.7141H15.5357V50.0891C15.5357 54.3792 12.0579 57.857 7.76786 57.857C3.47779 57.857 0 54.3792 0 50.0891V19.9127Z" fill="url(#paint0_radial_243_1163)"/>
<path d="M17.6786 10.7141H33.2143V50.0891C33.2143 54.3792 29.7365 57.857 25.4464 57.857C21.1564 57.857 17.6786 54.3792 17.6786 50.0891V10.7141Z" fill="#D9D9D9"/>
<path d="M17.6786 10.7141H33.2143V50.0891C33.2143 54.3792 29.7365 57.857 25.4464 57.857C21.1564 57.857 17.6786 54.3792 17.6786 50.0891V10.7141Z" fill="url(#paint1_radial_243_1163)"/>
<path d="M35.3571 10.7141H50.8929V50.0891C50.8929 54.3792 47.4151 57.857 43.125 57.857C38.8349 57.857 35.3571 54.3792 35.3571 50.0891V10.7141Z" fill="#D9D9D9"/>
<path d="M35.3571 10.7141H50.8929V50.0891C50.8929 54.3792 47.4151 57.857 43.125 57.857C38.8349 57.857 35.3571 54.3792 35.3571 50.0891V10.7141Z" fill="url(#paint2_radial_243_1163)"/>
<path d="M53.0357 10.7141H59.3728C64.4531 10.7141 68.5714 14.8325 68.5714 19.9127V50.0891C68.5714 54.3792 65.0936 57.857 60.8036 57.857C56.5135 57.857 53.0357 54.3792 53.0357 50.0891V10.7141Z" fill="#D9D9D9"/>
<path d="M53.0357 10.7141H59.3728C64.4531 10.7141 68.5714 14.8325 68.5714 19.9127V50.0891C68.5714 54.3792 65.0936 57.857 60.8036 57.857C56.5135 57.857 53.0357 54.3792 53.0357 50.0891V10.7141Z" fill="url(#paint3_radial_243_1163)"/>
<path d="M143.414 15.904C145.172 15.904 146.026 16.7578 145.975 18.4654L147.557 52.5921H141.681L140.25 20.8008H138.969L129.778 46.6406C129.377 47.9464 128.573 48.5993 127.368 48.5993H122.094C120.889 48.5993 120.035 47.8711 119.533 46.4146L110.267 20.8008H108.911L107.555 52.5921H101.678L103.11 18.2394C103.11 16.6825 103.888 15.904 105.445 15.904H111.999C113.255 15.904 114.109 16.6323 114.561 18.0887L122.019 38.7305C122.873 41.0407 123.5 42.9241 123.902 44.3806H125.108C126.363 40.2121 126.891 38.404 126.69 38.9565L134.298 17.8627C134.7 16.5569 135.529 15.904 136.784 15.904H143.414Z" fill="black"/>
<path d="M189.077 51.4621C185.813 52.8181 180.916 53.4961 174.387 53.4961C168.109 53.4961 163.564 51.8638 160.752 48.5993C158.04 45.4353 156.658 40.3627 156.608 33.3817C156.608 26.25 157.914 21.3783 160.526 18.7667C162.986 16.2556 167.507 15 174.086 15C179.661 15 183.678 16.0045 186.139 18.0134C188.399 19.8717 189.479 22.7846 189.379 26.7522C189.278 30.2176 188.224 32.7288 186.215 34.2857C184.356 35.7422 181.243 36.6462 176.873 36.9978L163.464 38.2031C163.916 42.0703 165.071 44.7321 166.929 46.1886C168.536 47.4442 171.098 48.072 174.613 48.072C178.983 48.072 183.452 47.7706 188.023 47.168L189.077 51.4621ZM176.12 32.1763C178.581 31.9754 180.313 31.4732 181.318 30.6696C182.322 29.8158 182.875 28.3343 182.975 26.2249C183.026 23.6635 182.297 21.981 180.791 21.1775C179.686 20.625 177.426 20.3488 174.01 20.3488C169.892 20.3488 167.105 21.1523 165.648 22.7595C164.142 24.5173 163.338 28.0831 163.238 33.457L176.12 32.1763Z" fill="black"/>
<path d="M227.13 51.6881C223.564 52.8934 219.471 53.4961 214.85 53.4961C208.422 53.4961 203.826 51.9894 201.064 48.976C198.402 46.0128 197.071 41.0156 197.071 33.9844C197.121 26.9531 198.402 22.0312 200.913 19.2187C203.475 16.4062 207.869 15 214.097 15C218.968 15 222.961 15.6027 226.075 16.808L225.698 20.8008C222.886 20.5497 219.621 20.4241 215.905 20.4241C211.284 20.4241 208.145 21.3281 206.488 23.1362C204.63 25.1451 203.726 28.9369 203.776 34.5117C203.876 40.0363 204.73 43.7026 206.337 45.5106C207.844 47.2182 210.782 48.072 215.152 48.072C219.37 48.072 223.037 47.8209 226.15 47.3186L227.13 51.6881Z" fill="black"/>
<path d="M241.24 23.8895C246.313 17.9632 251.235 15 256.006 15C261.932 15 265.247 17.7874 265.95 23.3622C270.721 17.7874 275.442 15 280.113 15C283.327 15 285.813 15.904 287.571 17.7121C289.279 19.5201 290.133 22.0061 290.133 25.1702V52.5921H283.729V26.7522C283.729 22.5335 281.946 20.4241 278.38 20.4241C275.417 20.4241 271.299 23.2115 266.025 28.7863L265.95 52.5921H259.773V26.7522C259.773 24.4922 259.371 22.885 258.567 21.9308C257.764 20.9263 256.383 20.4241 254.424 20.4241C251.461 20.4241 247.292 23.1613 241.918 28.6356L241.994 52.5921H235.666V15.904H240.638L241.24 23.8895Z" fill="black"/>
<path d="M316.65 15C322.878 15 327.373 16.4816 330.135 19.4448C332.948 22.5084 334.329 27.5558 334.279 34.5871C334.279 41.5179 333.023 46.4146 330.512 49.2773C327.951 52.1401 323.606 53.5714 317.479 53.5714C311.251 53.5714 306.757 52.0898 303.994 49.1267C301.182 46.0631 299.75 41.0407 299.7 34.0597C299.7 27.1289 300.981 22.207 303.542 19.2941C306.053 16.4314 310.423 15 316.65 15ZM317.404 20.4241C313.336 20.4241 310.523 21.3783 308.966 23.2868C307.309 25.346 306.455 29.1127 306.405 34.5871C306.455 39.8103 307.183 43.3761 308.59 45.2846C310.046 47.1931 312.758 48.1473 316.726 48.1473C320.794 48.1473 323.632 47.1429 325.239 45.1339C326.796 43.125 327.574 39.4336 327.574 34.0597C327.624 28.7863 326.921 25.1953 325.465 23.2868C324.008 21.3783 321.321 20.4241 317.404 20.4241Z" fill="black"/>
</g>
<defs>
<radialGradient id="paint0_radial_243_1163" cx="0" cy="0" r="1" gradientUnits="userSpaceOnUse" gradientTransform="translate(33.2143 48.0688) rotate(-90) scale(71.6986 41.1519)">
<stop stop-color="#FFDEFE"/>
<stop offset="0.515096" stop-color="#FF4BD0"/>
<stop offset="1" stop-color="#92B1FF"/>
</radialGradient>
<radialGradient id="paint1_radial_243_1163" cx="0" cy="0" r="1" gradientUnits="userSpaceOnUse" gradientTransform="translate(33.2143 48.0688) rotate(-90) scale(71.6986 41.1519)">
<stop stop-color="#FFDEFE"/>
<stop offset="0.515096" stop-color="#FF4BD0"/>
<stop offset="1" stop-color="#92B1FF"/>
</radialGradient>
<radialGradient id="paint2_radial_243_1163" cx="0" cy="0" r="1" gradientUnits="userSpaceOnUse" gradientTransform="translate(33.2143 48.0688) rotate(-90) scale(71.6986 41.1519)">
<stop stop-color="#FFDEFE"/>
<stop offset="0.515096" stop-color="#FF4BD0"/>
<stop offset="1" stop-color="#92B1FF"/>
</radialGradient>
<radialGradient id="paint3_radial_243_1163" cx="0" cy="0" r="1" gradientUnits="userSpaceOnUse" gradientTransform="translate(33.2143 48.0688) rotate(-90) scale(71.6986 41.1519)">
<stop stop-color="#FFDEFE"/>
<stop offset="0.515096" stop-color="#FF4BD0"/>
<stop offset="1" stop-color="#92B1FF"/>
</radialGradient>
<clipPath id="clip0_243_1163">
<rect width="334.28" height="68.5714" fill="white"/>
</clipPath>
</defs>
</svg>
