<svg width="156" height="56" viewBox="0 0 156 56" fill="none" xmlns="http://www.w3.org/2000/svg">
<path d="M0 21.2927C0 18.9219 1.9219 17 4.29268 17H7.25V35.375C7.25 37.377 5.62703 39 3.625 39C1.62297 39 0 37.377 0 35.375V21.2927Z" fill="#D9D9D9"/>
<path d="M0 21.2927C0 18.9219 1.9219 17 4.29268 17H7.25V35.375C7.25 37.377 5.62703 39 3.625 39C1.62297 39 0 37.377 0 35.375V21.2927Z" fill="url(#paint0_radial_209_1009)"/>
<path d="M8.25 17H15.5V35.375C15.5 37.377 13.877 39 11.875 39C9.87297 39 8.25 37.377 8.25 35.375V17Z" fill="#D9D9D9"/>
<path d="M8.25 17H15.5V35.375C15.5 37.377 13.877 39 11.875 39C9.87297 39 8.25 37.377 8.25 35.375V17Z" fill="url(#paint1_radial_209_1009)"/>
<path d="M16.5 17H23.75V35.375C23.75 37.377 22.127 39 20.125 39C18.123 39 16.5 37.377 16.5 35.375V17Z" fill="#D9D9D9"/>
<path d="M16.5 17H23.75V35.375C23.75 37.377 22.127 39 20.125 39C18.123 39 16.5 37.377 16.5 35.375V17Z" fill="url(#paint2_radial_209_1009)"/>
<path d="M24.75 17H27.7073C30.0781 17 32 18.9219 32 21.2927V35.375C32 37.377 30.377 39 28.375 39C26.373 39 24.75 37.377 24.75 35.375V17Z" fill="#D9D9D9"/>
<path d="M24.75 17H27.7073C30.0781 17 32 18.9219 32 21.2927V35.375C32 37.377 30.377 39 28.375 39C26.373 39 24.75 37.377 24.75 35.375V17Z" fill="url(#paint3_radial_209_1009)"/>
<path d="M66.9265 19.4219C67.7468 19.4219 68.1453 19.8203 68.1218 20.6172L68.8601 36.543H66.1179L65.45 21.707H64.8523L60.5632 33.7656C60.3757 34.375 60.0007 34.6797 59.4382 34.6797H56.9773C56.4148 34.6797 56.0164 34.3398 55.782 33.6602L51.4578 21.707H50.825L50.1921 36.543H47.45L48.1179 20.5117C48.1179 19.7852 48.4812 19.4219 49.2078 19.4219H52.2664C52.8523 19.4219 53.2507 19.7617 53.4617 20.4414L56.9421 30.0742C57.3406 31.1523 57.6335 32.0312 57.821 32.7109H58.3835C58.9695 30.7656 59.2156 29.9219 59.1218 30.1797L62.6726 20.3359C62.8601 19.7266 63.2468 19.4219 63.8328 19.4219H66.9265Z" fill="black"/>
<path d="M88.2361 36.0156C86.7127 36.6484 84.4276 36.9648 81.3807 36.9648C78.451 36.9648 76.3299 36.2031 75.0174 34.6797C73.7518 33.2031 73.1072 30.8359 73.0838 27.5781C73.0838 24.25 73.6932 21.9766 74.9119 20.7578C76.0604 19.5859 78.1697 19 81.2401 19C83.8416 19 85.7166 19.4687 86.865 20.4062C87.9197 21.2734 88.4236 22.6328 88.3768 24.4844C88.3299 26.1016 87.8377 27.2734 86.9002 28C86.033 28.6797 84.5799 29.1016 82.5408 29.2656L76.283 29.8281C76.494 31.6328 77.033 32.875 77.9002 33.5547C78.6502 34.1406 79.8455 34.4336 81.4861 34.4336C83.5252 34.4336 85.6111 34.293 87.744 34.0117L88.2361 36.0156ZM82.1893 27.0156C83.3377 26.9219 84.1463 26.6875 84.6151 26.3125C85.0838 25.9141 85.3416 25.2227 85.3885 24.2383C85.4119 23.043 85.0721 22.2578 84.369 21.8828C83.8533 21.625 82.7986 21.4961 81.2049 21.4961C79.283 21.4961 77.9822 21.8711 77.3025 22.6211C76.5994 23.4414 76.2244 25.1055 76.1775 27.6133L82.1893 27.0156Z" fill="black"/>
<path d="M105.994 36.1211C104.33 36.6836 102.42 36.9648 100.263 36.9648C97.2634 36.9648 95.1189 36.2617 93.8298 34.8555C92.5876 33.4727 91.9665 31.1406 91.9665 27.8594C91.99 24.5781 92.5876 22.2812 93.7595 20.9687C94.9548 19.6562 97.0056 19 99.9119 19C102.185 19 104.049 19.2812 105.502 19.8437L105.326 21.707C104.013 21.5898 102.49 21.5312 100.756 21.5312C98.5994 21.5312 97.1345 21.9531 96.3611 22.7969C95.4939 23.7344 95.072 25.5039 95.0955 28.1055C95.1423 30.6836 95.5408 32.3945 96.2908 33.2383C96.9939 34.0352 98.365 34.4336 100.404 34.4336C102.373 34.4336 104.084 34.3164 105.537 34.082L105.994 36.1211Z" fill="black"/>
<path d="M112.579 23.1484C114.946 20.3828 117.243 19 119.469 19C122.235 19 123.782 20.3008 124.11 22.9023C126.337 20.3008 128.54 19 130.719 19C132.219 19 133.38 19.4219 134.2 20.2656C134.997 21.1094 135.395 22.2695 135.395 23.7461V36.543H132.407V24.4844C132.407 22.5156 131.575 21.5312 129.911 21.5312C128.528 21.5312 126.606 22.832 124.145 25.4336L124.11 36.543H121.227V24.4844C121.227 23.4297 121.04 22.6797 120.665 22.2344C120.29 21.7656 119.645 21.5312 118.731 21.5312C117.348 21.5312 115.403 22.8086 112.895 25.3633L112.93 36.543H109.977V19.4219H112.298L112.579 23.1484Z" fill="black"/>
<path d="M147.77 19C150.676 19 152.774 19.6914 154.063 21.0742C155.376 22.5039 156.02 24.8594 155.997 28.1406C155.997 31.375 155.411 33.6602 154.239 34.9961C153.044 36.332 151.016 37 148.157 37C145.251 37 143.153 36.3086 141.864 34.9258C140.551 33.4961 139.884 31.1523 139.86 27.8945C139.86 24.6602 140.458 22.3633 141.653 21.0039C142.825 19.668 144.864 19 147.77 19ZM148.122 21.5312C146.223 21.5312 144.911 21.9766 144.184 22.8672C143.411 23.8281 143.012 25.5859 142.989 28.1406C143.012 30.5781 143.352 32.2422 144.009 33.1328C144.688 34.0234 145.954 34.4687 147.805 34.4687C149.704 34.4687 151.028 34 151.778 33.0625C152.505 32.125 152.868 30.4023 152.868 27.8945C152.891 25.4336 152.563 23.7578 151.884 22.8672C151.204 21.9766 149.95 21.5312 148.122 21.5312Z" fill="black"/>
<defs>
<radialGradient id="paint0_radial_209_1009" cx="0" cy="0" r="1" gradientUnits="userSpaceOnUse" gradientTransform="translate(15.5 34.4322) rotate(-90) scale(33.4593 19.2042)">
<stop stop-color="#FFDEFE"/>
<stop offset="0.515096" stop-color="#FF4BD0"/>
<stop offset="1" stop-color="#92B1FF"/>
</radialGradient>
<radialGradient id="paint1_radial_209_1009" cx="0" cy="0" r="1" gradientUnits="userSpaceOnUse" gradientTransform="translate(15.5 34.4322) rotate(-90) scale(33.4593 19.2042)">
<stop stop-color="#FFDEFE"/>
<stop offset="0.515096" stop-color="#FF4BD0"/>
<stop offset="1" stop-color="#92B1FF"/>
</radialGradient>
<radialGradient id="paint2_radial_209_1009" cx="0" cy="0" r="1" gradientUnits="userSpaceOnUse" gradientTransform="translate(15.5 34.4322) rotate(-90) scale(33.4593 19.2042)">
<stop stop-color="#FFDEFE"/>
<stop offset="0.515096" stop-color="#FF4BD0"/>
<stop offset="1" stop-color="#92B1FF"/>
</radialGradient>
<radialGradient id="paint3_radial_209_1009" cx="0" cy="0" r="1" gradientUnits="userSpaceOnUse" gradientTransform="translate(15.5 34.4322) rotate(-90) scale(33.4593 19.2042)">
<stop stop-color="#FFDEFE"/>
<stop offset="0.515096" stop-color="#FF4BD0"/>
<stop offset="1" stop-color="#92B1FF"/>
</radialGradient>
</defs>
</svg>
